<svg width="485" height="511" viewBox="0 0 485 511" fill="none" xmlns="http://www.w3.org/2000/svg">
<path d="M293.557 511C288.686 509.118 283.988 507.727 279.947 505.249C272.019 500.386 269.043 492.223 271.178 483.324C273.808 472.359 269.429 465.043 258.368 462.511C254.871 461.711 251.188 461.717 247.585 461.418C244.257 461.141 241.478 457.537 243.246 454.854C245.534 451.383 243.418 451.078 241.135 450.248C235.612 448.24 230.156 446.035 224.586 444.172C217.57 441.824 213.723 437.274 213.738 429.662C213.741 428.504 213.616 427.322 213.371 426.19C211.494 417.535 207.921 414.035 198.254 418.994C197.402 419.43 196.377 419.963 195.506 419.854C188.789 419.018 183.137 422.101 177.933 425.426C168.771 431.279 159.561 429.536 150.495 426.306C145.637 424.575 142.097 424.7 138.439 428.426C135.062 431.865 123.056 432.596 119.573 429.469C118.233 428.267 117.187 425.577 117.511 423.852C118.747 417.259 120.617 410.788 122.194 404.258C122.438 403.245 122.842 401.865 122.394 401.155C119.23 396.149 115.157 392.022 109.236 390.638C104.314 389.488 101.251 393.224 98.3256 396.19C92.4593 402.137 86.6592 408.217 78.2349 410.101C74.2684 410.989 69.9334 411.06 65.8923 410.526C61.3261 409.922 58.1522 405.338 58.1158 400.46C58.0423 390.608 58.0939 380.755 58.0939 371.159C67.3828 369.471 72.7969 362.444 73.1435 353.043C73.2304 350.688 73.1571 348.326 73.487 345.367C74.4679 343.467 74.8873 341.963 75.8083 340.901C81.5431 334.288 87.9807 334.077 96.8661 340.066C103.319 344.414 107.218 344.33 113.546 339.938C112.46 337.813 111.213 335.814 110.384 333.651C108.978 329.987 108.207 326.038 106.509 322.533C102.38 314.011 94.5883 312.526 86.1967 312.659C82.2267 312.722 76.9644 316.666 76.3696 320.522C75.1104 328.685 74.2572 336.911 73.2375 345.112C70.966 350.257 68.9243 355.528 66.2768 360.468C65.5261 361.869 62.6765 363.338 61.3895 362.916C59.9379 362.44 58.3712 359.935 58.2231 358.194C57.2817 347.129 59.4708 336.427 61.9633 325.674C63.746 317.983 63.9092 309.925 65.1689 302.092C67.316 288.741 70.0575 275.481 71.9784 262.1C73.4874 251.588 74.1511 240.952 75.1575 230.368C75.5352 226.396 75.8203 222.416 76.162 217.643C78.1921 214.658 80.2078 212.47 82.5855 210.539C83.0315 212.472 83.3076 214.166 83.1687 215.824C82.2243 227.096 81.4749 238.395 80.1137 249.618C78.5815 262.251 76.3982 274.802 74.6419 287.409C73.5998 294.889 72.8351 302.409 71.8997 310.299C74.9916 308.472 77.3324 306.598 79.9966 305.599C93.0282 300.716 108.772 308.636 113.486 321.943C114.835 325.75 116.385 330.11 119.23 332.62C124.708 337.452 125.393 340.28 120.14 345.743C114.199 351.921 101.416 353.196 94.054 348.353C91.8575 346.908 89.7557 345.258 87.4127 344.112C84.1359 342.51 80.6338 344.579 80.1976 348.115C79.8324 351.076 79.8675 354.138 79.1082 356.988C77.1559 364.317 75.4546 371.834 68.0659 376.135C66.9526 376.782 66.2499 379.009 66.2122 380.526C66.0262 388.031 66.1275 395.542 66.1275 404.196C67.6233 404.196 69.9888 404.546 72.2144 404.133C80.1368 402.659 85.279 397.225 90.3933 391.395C94.9629 386.186 100.375 380.504 108.08 382.721C113.515 384.285 118.468 387.91 123.311 391.114C130.816 396.079 132.848 402.254 127.671 410.652C125.434 414.281 125.224 419.179 124.119 423.405C130.108 425.087 133.771 422.836 136.756 419.036C141.846 412.557 143.096 412.349 149.981 416.871C157.307 421.683 164.637 423.392 172.856 418.379C177.669 415.444 183.092 413.354 188.468 411.584C192.145 410.373 196.335 410.802 200.086 409.743C211.17 406.615 217.908 412.776 218.89 422.325C219.466 427.924 219.541 434.22 226.228 436.85C230.795 438.647 235.305 440.654 239.989 442.071C246.223 443.957 252.333 445.627 251.248 452.861C258.17 455.165 264.582 456.674 270.434 459.402C278.412 463.12 281.168 470.399 279.329 479.139C278.581 482.692 277.918 486.418 278.202 489.986C278.416 492.684 279.458 496.419 281.41 497.673C288.285 502.091 296.032 504.567 304.366 503.853C309.835 503.384 311.879 500.567 312.24 494.932C312.47 491.346 313.328 487.791 314.035 484.248C314.782 480.501 316.145 477.104 320.583 476.617C325.717 476.055 329.922 477.02 332.333 482.584C335.162 489.117 338.549 490.828 346.953 489.618C352.823 488.773 358.988 486.96 360.487 479.975C362.05 472.687 359.586 466.38 353.902 461.492C348.687 457.008 348.007 453.098 353.555 448.915C358.946 444.851 365.598 442.486 370.824 439.82C369.767 433.346 367.636 426.105 367.655 418.869C367.675 410.834 369.162 402.691 370.944 394.81C372.291 388.857 375.1 383.2 381.58 380.889C386.843 379.014 389.429 375.208 389.692 369.802C393.053 368.918 396.735 368.85 399.223 367.079C402.792 364.539 406.248 361.182 408.35 357.386C410.539 353.435 411.062 348.548 412.379 343.835C411.258 343.519 409.369 343.037 407.51 342.454C400.027 340.106 398.231 335.41 402.877 329.11C406.513 324.18 410.896 319.817 414.695 314.998C418.102 310.676 422.125 309.282 427.094 311.567C430.047 305.433 434.579 307.812 438.855 308.606C440.278 308.871 442.481 309.139 443.126 308.375C444.066 307.262 443.907 305.215 444.238 303.57C445.353 298.041 446.451 292.509 447.612 286.99C448.085 284.746 448.703 282.533 449.254 280.305C446.533 279.919 443.306 278.417 441.198 279.386C437.26 281.196 433.32 283.889 430.55 287.206C425.01 293.838 418.606 294.302 410.869 292.658C405.393 291.495 399.616 291.791 393.978 291.368C390.875 291.135 387.144 291.771 384.803 290.266C377.099 285.314 371.368 277.538 373.998 266.713C375.899 258.883 377.761 250.929 375.562 242.614C374.327 237.946 375.817 233.41 379.015 229.592C384.732 222.766 388.358 214.956 390.152 206.18C391.679 198.709 388.413 192.516 381.137 190.529C371.595 187.922 362.221 188.199 352.936 192.185C349.247 193.769 345.143 194.668 341.141 195.16C331.116 196.393 322.608 191.43 314.008 187.446C301.175 181.501 288.562 175.075 275.83 168.906C273.464 167.76 271.791 166.66 271.876 163.399C272.003 158.592 271.634 153.718 270.93 148.954C269.437 138.865 269.609 134.415 256.648 131.376C252.037 130.295 247.45 129.106 242.861 127.933C231.545 125.04 231.547 125.032 230.479 113.47C223.099 117.953 215.202 118.111 206.879 116.118C208.586 125.211 209.966 133.663 211.786 142.019C214.939 156.492 218.013 170.928 224.358 184.549C229.12 194.771 227.976 196.488 218.376 199.422C217.447 199.706 216.66 200.645 215.744 200.757C212.088 201.205 207.54 203.255 205.31 199.038C202.491 193.709 200.244 187.901 198.803 182.037C195.109 167.009 192.161 151.796 188.594 136.734C186.169 126.491 183.202 116.379 180.545 105.851C181.627 104.329 182.641 103.164 183.656 102C184.641 103.139 186.192 104.13 186.528 105.438C192.012 126.798 197.216 148.231 202.776 169.57C204.708 176.984 207.236 184.264 209.959 191.424C210.515 192.885 213.164 193.536 214.848 194.561C215.487 192.783 216.928 190.849 216.62 189.258C215.496 183.456 213.585 177.813 212.338 172.03C208.693 155.128 205.168 138.199 201.733 121.253C200.982 117.545 200.797 113.721 200.333 109.803C207.509 109.236 214.077 108.836 220.616 108.158C225.015 107.703 229.367 106.8 233.753 106.201C236.744 105.793 238.065 107.178 237.885 110.269C237.729 112.957 237.852 115.661 237.852 118.866C244.386 120.03 250.964 120.968 257.432 122.404C272.037 125.647 275.67 130.054 277.05 145.321C277.198 146.956 278.228 148.668 277.931 150.158C276.046 159.598 280.602 163.782 288.944 167.114C303.07 172.757 316.661 179.762 330.463 186.224C336.474 189.039 342.143 188.618 347.775 185.02C359.648 177.436 372.109 179.23 384.345 183.622C394.012 187.092 398.349 197.784 396.451 208.8C394.748 218.678 390.287 227.102 385.28 235.464C384.187 237.29 383.762 239.709 383.621 241.894C383.229 247.938 383.275 254.01 382.907 260.056C382.604 265.038 381.468 270.013 381.604 274.965C381.735 279.758 386.278 284.626 393.3 283.125C397.428 282.243 402.333 282.456 406.285 283.879C414.422 286.81 421.069 285.65 426.992 279.42C432.089 274.059 437.984 270.919 445.734 271.026C454.78 271.151 459.562 277.214 457.541 286.69C457.104 288.736 456.42 291.196 454.981 292.466C451.338 295.684 451.679 299.673 451.751 303.774C451.915 313.235 450.698 317.9 438.964 316.697C437.361 316.532 435.746 316.501 433.829 316.39C433.738 321.56 434.214 327.938 426.712 328.502C425.029 328.628 423.051 324.763 420.636 322.106C417.794 325.276 414.283 329.192 410.296 333.639C412.667 334.788 413.748 335.62 414.939 335.837C421.507 337.034 424.641 339.489 421.183 347.258C418.632 352.99 415.898 358.489 414.352 364.649C412.55 371.829 406.309 373.695 400.107 375.068C397.544 375.636 395.363 375.734 395.277 379.389C395.245 380.756 393.283 382.594 391.774 383.327C379.857 389.115 376.095 399.548 374.203 411.824C373.083 419.085 374.052 425.649 376.506 432.161C377.514 434.836 379.908 436.947 381.236 439.541C382.294 441.608 383.226 444.051 383.092 446.258C383.045 447.029 379.685 447.73 377.778 448.227C372.288 449.658 366.704 450.759 361.287 452.421C358.813 453.181 358.479 455.355 360.7 457.028C367.943 462.484 369.086 470.237 368.212 478.377C367.787 482.343 366.671 486.733 364.437 489.91C357.65 499.559 338.52 500.613 330.255 492.3C328.481 490.516 326.821 488.56 324.817 487.087C323.878 486.397 321.664 486.062 321.061 486.647C320.145 487.537 319.925 489.345 319.767 490.802C319.293 495.186 319.549 499.737 318.454 503.941C317.518 507.537 314.661 510.151 310.305 510.654C304.782 511 299.404 511 293.557 511Z" fill="#EB6F31"/>
<path d="M184.917 101.682C183.782 103.166 182.768 104.329 181.34 105.849C175.079 112.868 169.361 119.652 163.36 126.172C144.767 146.374 126.068 166.476 107.405 186.612C106.608 187.472 105.775 188.298 104.938 189.117C97.7523 196.147 90.5622 203.172 83.3735 210.198C81.3579 212.384 79.3424 214.57 77.2576 217.102C72.4008 221.461 67.5558 225.408 62.8358 229.501C46.1919 243.935 29.2367 257.923 9.13055 267.348C6.51604 268.574 3.59332 269.132 0.406676 270C0 256.159 0 242.317 0 228.002C10.0049 221.666 20.4023 216.378 29.9149 209.794C41.663 201.662 52.8383 192.657 63.9478 183.638C71.1553 177.786 77.803 171.235 85.3307 164.78C88.1438 162.281 90.3277 160.001 92.822 157.603C102.841 148.389 112.707 139.457 122.22 130.157C136.163 116.527 149.852 102.634 163.969 88.7746C165.755 86.828 167.223 84.9591 168.691 83.0903C181.326 69.814 193.979 56.5557 206.585 43.2518C211.165 38.4186 215.638 33.4822 220.148 28.5824C228.713 19.2773 237.271 9.96471 245.925 0.327613C246.466 0 246.912 0 247.693 0C262.059 18.3475 275.767 36.9586 290.217 54.9651C303.498 71.5143 317.499 87.4825 331.341 103.568C338.075 111.393 345.084 118.984 352.126 126.533C363.638 138.873 375.131 151.236 386.909 163.316C396.607 173.264 406.493 183.049 416.675 192.491C433.133 207.75 449.852 222.725 466.569 237.698C471.696 242.29 477.176 246.483 482 251.455C436.583 220.715 395.035 185.159 356.14 146.552C317.051 107.752 281.02 66.1858 250.206 19.5619C244.253 27.0172 238.71 33.9372 233.191 40.8764C225.376 50.7024 217.59 60.5519 209.77 70.3743C201.539 80.7139 193.283 91.0334 184.917 101.682Z" fill="#B62F88"/>
<path d="M485 255C484 254.876 483 254.407 482 253.938C482.093 253.625 482.186 253.313 482.279 253C482.934 253.085 483.589 253.17 484.622 253.263C485 253.732 485 254.193 485 255Z" fill="#B62F88"/>
<path d="M93.1947 158.098C91.0126 160.373 88.8305 162.649 86.3284 165C86.0198 149.955 85.9078 134.832 86.0828 119.713C86.2162 108.184 85.8314 96.5454 87.2789 85.1617C88.9713 71.8518 91.3537 58.4228 95.461 45.7068C98.047 37.7005 104.068 30.7058 109.103 23.659C111.434 20.3978 114.934 17.5544 119.688 19.8071C123.688 21.7024 126.894 28.2163 126.124 32.7413C125.821 34.523 125.808 36.4687 125.045 38.0355C122.813 42.6176 125.492 45.3128 128.498 47.8082C132.925 51.4837 137.706 54.7458 141.98 58.5854C151.005 66.6938 159.8 75.0624 169 83.4798C167.844 85.5001 166.377 87.3648 164.472 88.995C156.321 82.0112 148.577 75.2978 140.906 68.5016C134.456 62.787 128.301 56.7128 121.618 51.2944C116.642 47.2601 116.43 42.4711 117.663 36.9985C117.807 36.3607 118.222 35.6731 118.092 35.1057C117.708 33.4294 117.114 31.8017 116.602 30.155C114.999 30.7242 112.697 30.8072 111.913 31.9464C108.402 37.0511 104.525 42.1317 102.238 47.8146C95.509 64.5424 94.1095 82.4596 93.2805 100.185C92.3796 119.448 93.1519 138.79 93.1947 158.098Z" fill="#EB6F31"/>
<path d="M186.32 373H182.383V369.836H182.289C180.773 372.336 178.484 373.586 175.422 373.586C172.375 373.586 169.828 372.383 167.781 369.977C165.75 367.555 164.734 364.422 164.734 360.578C164.734 356.562 165.695 353.391 167.617 351.062C169.539 348.734 172.078 347.57 175.234 347.57C178.203 347.57 180.461 348.703 182.008 350.969H182.102V338.641H186.32V373ZM175.867 370.117C177.711 370.117 179.273 369.359 180.555 367.844C181.836 366.328 182.477 364.031 182.477 360.953C182.477 357.922 181.891 355.508 180.719 353.711C179.547 351.914 177.867 351.016 175.68 351.016C173.492 351.016 171.836 351.898 170.711 353.664C169.602 355.414 169.047 357.719 169.047 360.578C169.047 362.641 169.344 364.391 169.938 365.828C170.547 367.25 171.391 368.32 172.469 369.039C173.547 369.758 174.68 370.117 175.867 370.117ZM197.312 342.461C197.312 343.586 197.242 344.562 197.102 345.391C196.977 346.203 196.633 347.023 196.07 347.852C195.508 348.664 194.641 349.336 193.469 349.867L192.414 348.227C194.117 347.539 194.977 345.977 194.992 343.539H192.789V338.641H197.312V342.461ZM236.477 373H230.702L226.167 361.24H210.03L205.759 373H200.354L215.198 334.346H220.709L236.477 373ZM224.611 357.18C221.447 348.812 219.663 344.066 219.259 342.941C218.854 341.799 218.406 340.278 217.914 338.38H217.782C217.29 340.981 216.631 343.39 215.805 345.604L211.48 357.18H224.611ZM244.782 373H240.036V345.024H244.782V373ZM244.782 339.725H240.036V334.346H244.782V339.725ZM274.683 373H270.253V369.44H270.147C268.442 372.253 265.867 373.659 262.422 373.659C258.994 373.659 256.129 372.306 253.826 369.599C251.541 366.874 250.398 363.35 250.398 359.025C250.398 354.508 251.479 350.939 253.642 348.32C255.804 345.701 258.66 344.392 262.211 344.392C265.551 344.392 268.091 345.666 269.831 348.215H269.937V334.346H274.683V373ZM262.923 369.757C264.997 369.757 266.755 368.904 268.196 367.199C269.638 365.494 270.358 362.91 270.358 359.447C270.358 356.037 269.699 353.321 268.381 351.3C267.062 349.278 265.173 348.268 262.712 348.268C260.251 348.268 258.388 349.261 257.122 351.247C255.874 353.216 255.25 355.809 255.25 359.025C255.25 361.346 255.584 363.314 256.252 364.932C256.938 366.531 257.887 367.735 259.1 368.544C260.312 369.353 261.587 369.757 262.923 369.757ZM306.429 360.212H285.467C285.66 363.306 286.539 365.67 288.104 367.305C289.686 368.939 291.654 369.757 294.01 369.757C295.82 369.757 297.341 369.282 298.571 368.333C299.802 367.366 300.742 365.916 301.393 363.982L306.271 364.589C305.479 367.507 304.029 369.748 301.92 371.312C299.811 372.877 297.174 373.659 294.01 373.659C289.809 373.659 286.521 372.376 284.148 369.81C281.793 367.226 280.615 363.701 280.615 359.236C280.615 354.824 281.758 351.247 284.043 348.505C286.346 345.763 289.58 344.392 293.746 344.392C295.785 344.392 297.745 344.84 299.626 345.736C301.524 346.633 303.133 348.162 304.451 350.324C305.77 352.469 306.429 355.765 306.429 360.212ZM301.551 356.31C301.357 353.462 300.47 351.414 298.888 350.166C297.323 348.9 295.609 348.268 293.746 348.268C291.514 348.268 289.677 349.015 288.235 350.509C286.794 352.003 285.959 353.937 285.73 356.31H301.551Z" fill="#FBD13E"/>
<path d="M165.162 301.673H171.833C173.002 301.673 174.008 301.734 174.852 301.857C175.696 301.972 176.5 302.262 177.265 302.728C178.038 303.185 178.71 303.817 179.282 304.626C179.862 305.435 180.314 306.366 180.64 307.421C180.974 308.467 181.141 309.737 181.141 311.231C181.141 314.079 180.464 316.421 179.11 318.258C177.757 320.086 175.428 321 172.123 321H165.162V301.673ZM167.72 318.706H171.859C172.703 318.706 173.455 318.653 174.114 318.548C174.782 318.442 175.454 318.157 176.131 317.691C176.816 317.225 177.383 316.46 177.832 315.397C178.28 314.333 178.504 312.927 178.504 311.178C178.504 310.211 178.416 309.311 178.24 308.476C178.073 307.632 177.757 306.867 177.291 306.182C176.834 305.487 176.307 304.982 175.709 304.666C175.111 304.34 174.527 304.143 173.956 304.072C173.393 304.002 172.668 303.967 171.78 303.967H167.72V318.706ZM196.473 314.606H185.992C186.089 316.153 186.528 317.335 187.311 318.152C188.102 318.97 189.086 319.378 190.264 319.378C191.169 319.378 191.929 319.141 192.544 318.667C193.16 318.183 193.63 317.458 193.955 316.491L196.394 316.794C195.999 318.253 195.273 319.374 194.219 320.156C193.164 320.938 191.846 321.33 190.264 321.33C188.163 321.33 186.52 320.688 185.333 319.405C184.155 318.113 183.566 316.351 183.566 314.118C183.566 311.912 184.138 310.124 185.28 308.752C186.432 307.381 188.049 306.696 190.132 306.696C191.151 306.696 192.131 306.92 193.072 307.368C194.021 307.816 194.825 308.581 195.484 309.662C196.144 310.734 196.473 312.382 196.473 314.606ZM194.034 312.655C193.938 311.231 193.494 310.207 192.703 309.583C191.92 308.95 191.063 308.634 190.132 308.634C189.016 308.634 188.097 309.007 187.376 309.754C186.656 310.501 186.238 311.468 186.124 312.655H194.034ZM193.428 301.343L190.514 305.048H188.563L190.316 301.343H193.428ZM201.588 308.818C202.476 307.403 203.808 306.696 205.583 306.696C207.42 306.696 208.87 307.364 209.934 308.7C210.997 310.027 211.529 311.758 211.529 313.894C211.529 316.17 210.94 317.981 209.762 319.326C208.584 320.662 207.139 321.33 205.425 321.33C203.922 321.33 202.718 320.732 201.812 319.537H201.747V326.379H199.374V307.012H201.536V308.818H201.588ZM205.267 319.378C206.374 319.378 207.288 318.921 208.009 318.007C208.738 317.084 209.103 315.713 209.103 313.894C209.103 312.18 208.751 310.862 208.048 309.939C207.354 309.016 206.462 308.555 205.372 308.555C204.247 308.555 203.32 309.069 202.59 310.097C201.87 311.125 201.509 312.457 201.509 314.092C201.509 315.823 201.856 317.137 202.551 318.034C203.245 318.93 204.15 319.378 205.267 319.378ZM226.505 321H224.014C223.785 320.561 223.623 319.985 223.526 319.273C221.935 320.644 220.217 321.33 218.371 321.33C216.895 321.33 215.73 320.96 214.877 320.222C214.025 319.484 213.599 318.508 213.599 317.295C213.599 316.135 214.007 315.182 214.825 314.435C215.651 313.679 217.079 313.178 219.109 312.932L221.324 312.602C222.15 312.47 222.832 312.308 223.368 312.114C223.368 311.402 223.346 310.901 223.302 310.611C223.258 310.312 223.126 310.005 222.906 309.688C222.695 309.372 222.353 309.117 221.878 308.924C221.403 308.73 220.766 308.634 219.966 308.634C218.947 308.634 218.138 308.823 217.541 309.201C216.952 309.579 216.547 310.282 216.328 311.31L214.007 311.007C214.262 309.574 214.917 308.498 215.972 307.777C217.026 307.056 218.477 306.696 220.322 306.696C222.001 306.696 223.231 306.946 224.014 307.447C224.805 307.939 225.288 308.537 225.464 309.24C225.648 309.943 225.741 310.849 225.741 311.956V315.146C225.741 317.089 225.776 318.394 225.846 319.062C225.925 319.721 226.145 320.367 226.505 321ZM223.368 314.843V313.986C222.128 314.399 220.612 314.729 218.819 314.975C217.026 315.212 216.13 315.968 216.13 317.243C216.13 317.884 216.372 318.416 216.855 318.838C217.338 319.251 218.033 319.458 218.938 319.458C220.107 319.458 221.135 319.11 222.023 318.416C222.919 317.713 223.368 316.522 223.368 314.843ZM236.947 307.447L236.129 309.636C235.541 309.293 234.965 309.122 234.402 309.122C233.515 309.122 232.842 309.521 232.385 310.321C231.928 311.112 231.7 312.224 231.7 313.657V321H229.327V307.012H231.489V309.122H231.542C232.297 307.504 233.286 306.696 234.508 306.696C235.316 306.696 236.129 306.946 236.947 307.447ZM243.855 320.974C243.152 321.114 242.559 321.185 242.075 321.185C241.038 321.185 240.282 321.004 239.808 320.644C239.333 320.275 239.043 319.809 238.938 319.247C238.832 318.684 238.779 317.902 238.779 316.9V308.845H237.052V307.012H238.779V303.532L241.152 302.095V307.012H243.525V308.845H241.152V317.032C241.152 317.735 241.223 318.236 241.363 318.535C241.513 318.825 241.882 318.97 242.471 318.97C242.813 318.97 243.165 318.935 243.525 318.864L243.855 320.974ZM258.067 314.606H247.586C247.683 316.153 248.122 317.335 248.904 318.152C249.695 318.97 250.68 319.378 251.857 319.378C252.763 319.378 253.523 319.141 254.138 318.667C254.753 318.183 255.224 317.458 255.549 316.491L257.988 316.794C257.592 318.253 256.867 319.374 255.812 320.156C254.758 320.938 253.439 321.33 251.857 321.33C249.757 321.33 248.113 320.688 246.927 319.405C245.749 318.113 245.16 316.351 245.16 314.118C245.16 311.912 245.731 310.124 246.874 308.752C248.025 307.381 249.643 306.696 251.726 306.696C252.745 306.696 253.725 306.92 254.666 307.368C255.615 307.816 256.419 308.581 257.078 309.662C257.737 310.734 258.067 312.382 258.067 314.606ZM255.628 312.655C255.531 311.231 255.087 310.207 254.296 309.583C253.514 308.95 252.657 308.634 251.726 308.634C250.609 308.634 249.691 309.007 248.97 309.754C248.25 310.501 247.832 311.468 247.718 312.655H255.628ZM279.899 321H277.526V312.167C277.526 311.517 277.482 310.963 277.394 310.506C277.306 310.04 277.078 309.631 276.708 309.28C276.348 308.919 275.781 308.739 275.008 308.739C274.076 308.739 273.272 309.064 272.595 309.715C271.918 310.365 271.58 311.42 271.58 312.879V321H269.207V311.903C269.207 310.69 268.992 309.86 268.561 309.412C268.139 308.963 267.537 308.739 266.755 308.739C265.735 308.739 264.896 309.091 264.237 309.794C263.586 310.497 263.261 311.811 263.261 313.736V321H260.888V307.012H263.024V308.963H263.077C264.026 307.452 265.419 306.696 267.256 306.696C268.284 306.696 269.128 306.902 269.787 307.315C270.455 307.72 270.938 308.331 271.237 309.148C272.274 307.513 273.711 306.696 275.548 306.696C276.999 306.696 278.084 307.087 278.805 307.869C279.534 308.651 279.899 309.825 279.899 311.389V321ZM295.587 314.606H285.106C285.203 316.153 285.643 317.335 286.425 318.152C287.216 318.97 288.2 319.378 289.378 319.378C290.283 319.378 291.043 319.141 291.659 318.667C292.274 318.183 292.744 317.458 293.069 316.491L295.508 316.794C295.113 318.253 294.388 319.374 293.333 320.156C292.278 320.938 290.96 321.33 289.378 321.33C287.277 321.33 285.634 320.688 284.447 319.405C283.27 318.113 282.681 316.351 282.681 314.118C282.681 311.912 283.252 310.124 284.395 308.752C285.546 307.381 287.163 306.696 289.246 306.696C290.266 306.696 291.246 306.92 292.186 307.368C293.135 307.816 293.939 308.581 294.599 309.662C295.258 310.734 295.587 312.382 295.587 314.606ZM293.148 312.655C293.052 311.231 292.608 310.207 291.817 309.583C291.035 308.95 290.178 308.634 289.246 308.634C288.13 308.634 287.211 309.007 286.491 309.754C285.77 310.501 285.353 311.468 285.238 312.655H293.148ZM309.892 321H307.505V312.497C307.505 311.064 307.246 310.08 306.728 309.543C306.218 309.007 305.506 308.739 304.592 308.739C303.889 308.739 303.221 308.911 302.588 309.253C301.964 309.596 301.52 310.08 301.256 310.704C300.993 311.328 300.861 312.211 300.861 313.354V321H298.488V307.012H300.624V308.99H300.676C301.177 308.225 301.792 307.654 302.522 307.276C303.26 306.889 304.113 306.696 305.08 306.696C305.818 306.696 306.547 306.828 307.268 307.091C307.989 307.355 308.551 307.75 308.956 308.278C309.369 308.805 309.628 309.368 309.733 309.965C309.839 310.563 309.892 311.372 309.892 312.391V321ZM318.949 320.974C318.246 321.114 317.652 321.185 317.169 321.185C316.132 321.185 315.376 321.004 314.901 320.644C314.427 320.275 314.137 319.809 314.031 319.247C313.926 318.684 313.873 317.902 313.873 316.9V308.845H312.146V307.012H313.873V303.532L316.246 302.095V307.012H318.619V308.845H316.246V317.032C316.246 317.735 316.316 318.236 316.457 318.535C316.606 318.825 316.976 318.97 317.564 318.97C317.907 318.97 318.259 318.935 318.619 318.864L318.949 320.974ZM333.134 321H330.643C330.414 320.561 330.251 319.985 330.155 319.273C328.564 320.644 326.846 321.33 325 321.33C323.523 321.33 322.359 320.96 321.506 320.222C320.654 319.484 320.228 318.508 320.228 317.295C320.228 316.135 320.636 315.182 321.454 314.435C322.28 313.679 323.708 313.178 325.738 312.932L327.953 312.602C328.779 312.47 329.46 312.308 329.997 312.114C329.997 311.402 329.975 310.901 329.931 310.611C329.887 310.312 329.755 310.005 329.535 309.688C329.324 309.372 328.981 309.117 328.507 308.924C328.032 308.73 327.395 308.634 326.595 308.634C325.576 308.634 324.767 308.823 324.169 309.201C323.581 309.579 323.176 310.282 322.957 311.31L320.636 311.007C320.891 309.574 321.546 308.498 322.601 307.777C323.655 307.056 325.105 306.696 326.951 306.696C328.63 306.696 329.86 306.946 330.643 307.447C331.434 307.939 331.917 308.537 332.093 309.24C332.277 309.943 332.37 310.849 332.37 311.956V315.146C332.37 317.089 332.405 318.394 332.475 319.062C332.554 319.721 332.774 320.367 333.134 321ZM329.997 314.843V313.986C328.757 314.399 327.241 314.729 325.448 314.975C323.655 315.212 322.759 315.968 322.759 317.243C322.759 317.884 323 318.416 323.484 318.838C323.967 319.251 324.662 319.458 325.567 319.458C326.736 319.458 327.764 319.11 328.652 318.416C329.548 317.713 329.997 316.522 329.997 314.843ZM338.408 321H336.035V301.673H338.408V321Z" fill="#3CAAD3"/>
<path d="M181.612 403H178.105C177.784 402.382 177.555 401.571 177.419 400.569C175.18 402.499 172.762 403.464 170.164 403.464C168.086 403.464 166.447 402.944 165.247 401.905C164.047 400.866 163.447 399.493 163.447 397.786C163.447 396.153 164.022 394.811 165.173 393.76C166.336 392.696 168.346 391.991 171.203 391.645L174.32 391.181C175.483 390.995 176.442 390.766 177.196 390.494C177.196 389.492 177.165 388.787 177.104 388.379C177.042 387.958 176.856 387.525 176.547 387.08C176.25 386.635 175.768 386.276 175.1 386.004C174.432 385.732 173.535 385.596 172.409 385.596C170.974 385.596 169.836 385.862 168.995 386.394C168.166 386.925 167.597 387.915 167.288 389.362L164.022 388.936C164.381 386.919 165.303 385.404 166.787 384.39C168.271 383.375 170.312 382.868 172.91 382.868C175.273 382.868 177.005 383.221 178.105 383.926C179.219 384.618 179.899 385.46 180.146 386.449C180.406 387.439 180.536 388.713 180.536 390.271V394.762C180.536 397.495 180.586 399.332 180.685 400.272C180.796 401.2 181.105 402.109 181.612 403ZM177.196 394.335V393.129C175.452 393.71 173.318 394.174 170.795 394.521C168.271 394.854 167.01 395.918 167.01 397.712C167.01 398.615 167.35 399.363 168.03 399.957C168.711 400.538 169.688 400.829 170.962 400.829C172.607 400.829 174.054 400.34 175.304 399.363C176.565 398.374 177.196 396.698 177.196 394.335ZM174.673 380.549H171.927L167.826 375.335H172.205L174.673 380.549ZM198.033 375.799H207.422C209.067 375.799 210.483 375.885 211.671 376.059C212.858 376.219 213.99 376.628 215.066 377.283C216.155 377.926 217.101 378.817 217.905 379.955C218.722 381.093 219.359 382.404 219.816 383.889C220.286 385.361 220.521 387.148 220.521 389.251C220.521 393.259 219.569 396.555 217.664 399.141C215.759 401.714 212.481 403 207.83 403H198.033V375.799ZM201.633 399.771H207.459C208.646 399.771 209.704 399.697 210.632 399.549C211.572 399.4 212.518 398.998 213.471 398.343C214.436 397.687 215.233 396.611 215.864 395.114C216.495 393.618 216.811 391.638 216.811 389.177C216.811 387.816 216.687 386.548 216.439 385.373C216.204 384.186 215.759 383.109 215.104 382.145C214.46 381.167 213.718 380.456 212.877 380.011C212.036 379.553 211.213 379.275 210.409 379.176C209.618 379.077 208.597 379.027 207.348 379.027H201.633V399.771ZM233.009 382.868C235.668 382.868 237.87 383.734 239.614 385.466C241.371 387.198 242.249 389.659 242.249 392.851C242.249 396.722 241.303 399.462 239.41 401.07C237.518 402.666 235.384 403.464 233.009 403.464C230.522 403.464 228.364 402.641 226.533 400.996C224.702 399.351 223.787 396.741 223.787 393.166C223.787 389.702 224.672 387.123 226.44 385.429C228.209 383.722 230.399 382.868 233.009 382.868ZM233.009 400.718C234.914 400.718 236.361 400.013 237.351 398.603C238.34 397.192 238.835 395.337 238.835 393.036C238.835 390.575 238.272 388.719 237.146 387.47C236.033 386.22 234.654 385.596 233.009 385.596C231.314 385.596 229.923 386.233 228.834 387.507C227.745 388.769 227.201 390.655 227.201 393.166C227.201 395.665 227.752 397.551 228.853 398.825C229.966 400.087 231.351 400.718 233.009 400.718ZM272.827 403H269.487V390.568C269.487 389.653 269.425 388.874 269.302 388.23C269.178 387.575 268.856 387 268.337 386.505C267.83 385.998 267.032 385.744 265.943 385.744C264.632 385.744 263.5 386.202 262.548 387.117C261.595 388.033 261.119 389.517 261.119 391.57V403H257.779V390.197C257.779 388.49 257.476 387.321 256.87 386.69C256.276 386.06 255.429 385.744 254.328 385.744C252.893 385.744 251.712 386.239 250.784 387.229C249.869 388.218 249.411 390.067 249.411 392.776V403H246.071V383.313H249.077V386.06H249.151C250.487 383.932 252.448 382.868 255.033 382.868C256.48 382.868 257.668 383.159 258.596 383.74C259.536 384.309 260.216 385.169 260.637 386.319C262.096 384.019 264.119 382.868 266.704 382.868C268.745 382.868 270.273 383.419 271.287 384.52C272.314 385.62 272.827 387.272 272.827 389.474V403ZM281.14 403H277.8V383.313H281.14V403ZM281.14 379.584H277.8V375.799H281.14V379.584ZM302.385 396.19C301.952 398.701 300.962 400.545 299.416 401.72C297.87 402.882 296.119 403.464 294.165 403.464C291.308 403.464 289.1 402.53 287.541 400.662C285.982 398.782 285.203 396.296 285.203 393.203C285.203 390.643 285.648 388.595 286.539 387.062C287.442 385.515 288.568 384.433 289.916 383.814C291.264 383.184 292.681 382.868 294.165 382.868C296.194 382.868 297.925 383.394 299.36 384.445C300.808 385.497 301.698 387.043 302.032 389.084L298.804 389.585C298.47 388.261 297.925 387.266 297.171 386.598C296.429 385.93 295.476 385.596 294.313 385.596C292.446 385.596 291.029 386.257 290.064 387.581C289.1 388.905 288.617 390.754 288.617 393.129C288.617 395.553 289.087 397.427 290.027 398.751C290.98 400.062 292.347 400.718 294.128 400.718C295.563 400.718 296.688 400.31 297.505 399.493C298.334 398.664 298.853 397.427 299.063 395.782L302.385 396.19ZM308.601 403H305.261V383.313H308.601V403ZM308.601 379.584H305.261V375.799H308.601V379.584ZM317.062 403H313.722V375.799H317.062V403ZM339.29 394.001H324.539C324.675 396.178 325.294 397.842 326.395 398.992C327.508 400.143 328.893 400.718 330.551 400.718C331.825 400.718 332.895 400.384 333.761 399.716C334.627 399.035 335.288 398.015 335.746 396.654L339.179 397.081C338.622 399.134 337.602 400.712 336.117 401.812C334.633 402.913 332.777 403.464 330.551 403.464C327.594 403.464 325.281 402.561 323.611 400.755C321.954 398.937 321.125 396.456 321.125 393.314C321.125 390.21 321.929 387.692 323.537 385.763C325.158 383.833 327.434 382.868 330.365 382.868C331.8 382.868 333.179 383.184 334.503 383.814C335.839 384.445 336.971 385.521 337.898 387.043C338.826 388.552 339.29 390.871 339.29 394.001ZM335.857 391.255C335.721 389.251 335.097 387.81 333.983 386.932C332.882 386.041 331.676 385.596 330.365 385.596C328.794 385.596 327.502 386.121 326.487 387.173C325.473 388.224 324.885 389.585 324.725 391.255H335.857Z" fill="#A8458B"/>
<path d="M175.108 270.076H182.184C183.228 270.076 184.233 269.999 185.2 269.844C186.167 269.689 187.017 269.399 187.752 268.974C188.487 268.51 189.067 267.872 189.492 267.06C189.956 266.248 190.188 265.185 190.188 263.87C190.188 262.555 189.956 261.492 189.492 260.68C189.067 259.868 188.487 259.249 187.752 258.824C187.017 258.36 186.167 258.051 185.2 257.896C184.233 257.741 183.228 257.664 182.184 257.664H175.108V270.076ZM166.002 250.588H184.678C187.269 250.588 189.473 250.975 191.29 251.748C193.107 252.483 194.577 253.469 195.698 254.706C196.858 255.943 197.689 257.355 198.192 258.94C198.733 260.525 199.004 262.169 199.004 263.87C199.004 265.533 198.733 267.176 198.192 268.8C197.689 270.385 196.858 271.797 195.698 273.034C194.577 274.271 193.107 275.277 191.29 276.05C189.473 276.785 187.269 277.152 184.678 277.152H175.108V292H166.002V250.588ZM231.948 292H224.118V287.824H223.944C222.9 289.564 221.546 290.821 219.884 291.594C218.221 292.367 216.52 292.754 214.78 292.754C212.576 292.754 210.758 292.464 209.328 291.884C207.936 291.304 206.834 290.492 206.022 289.448C205.21 288.365 204.63 287.07 204.282 285.562C203.972 284.015 203.818 282.314 203.818 280.458V262.014H212.054V278.95C212.054 281.425 212.44 283.281 213.214 284.518C213.987 285.717 215.36 286.316 217.332 286.316C219.574 286.316 221.198 285.659 222.204 284.344C223.209 282.991 223.712 280.787 223.712 277.732V262.014H231.948V292ZM260.18 277.036C260.18 275.76 260.045 274.542 259.774 273.382C259.504 272.222 259.078 271.197 258.498 270.308C257.918 269.419 257.184 268.723 256.294 268.22C255.444 267.679 254.4 267.408 253.162 267.408C251.964 267.408 250.92 267.679 250.03 268.22C249.141 268.723 248.406 269.419 247.826 270.308C247.246 271.197 246.821 272.222 246.55 273.382C246.28 274.542 246.144 275.76 246.144 277.036C246.144 278.273 246.28 279.472 246.55 280.632C246.821 281.792 247.246 282.817 247.826 283.706C248.406 284.595 249.141 285.311 250.03 285.852C250.92 286.355 251.964 286.606 253.162 286.606C254.4 286.606 255.444 286.355 256.294 285.852C257.184 285.311 257.918 284.595 258.498 283.706C259.078 282.817 259.504 281.792 259.774 280.632C260.045 279.472 260.18 278.273 260.18 277.036ZM238.198 250.588H246.434V265.668H246.55C247.556 264.121 248.909 263 250.61 262.304C252.35 261.569 254.148 261.202 256.004 261.202C257.512 261.202 259.001 261.511 260.47 262.13C261.94 262.749 263.254 263.696 264.414 264.972C265.613 266.248 266.58 267.891 267.314 269.902C268.049 271.874 268.416 274.233 268.416 276.978C268.416 279.723 268.049 282.101 267.314 284.112C266.58 286.084 265.613 287.708 264.414 288.984C263.254 290.26 261.94 291.207 260.47 291.826C259.001 292.445 257.512 292.754 256.004 292.754C253.8 292.754 251.828 292.406 250.088 291.71C248.348 291.014 247.034 289.835 246.144 288.172H246.028V292H238.198V250.588ZM273.887 250.588H282.123V292H273.887V250.588ZM297.077 257.374H288.841V250.588H297.077V257.374ZM288.841 262.014H297.077V292H288.841V262.014ZM323.978 272.57C323.436 269.129 321.406 267.408 317.888 267.408C316.573 267.408 315.471 267.717 314.582 268.336C313.692 268.916 312.958 269.689 312.378 270.656C311.836 271.584 311.45 272.628 311.218 273.788C310.986 274.909 310.87 276.031 310.87 277.152C310.87 278.235 310.986 279.337 311.218 280.458C311.45 281.579 311.817 282.604 312.32 283.532C312.861 284.421 313.576 285.156 314.466 285.736C315.355 286.316 316.438 286.606 317.714 286.606C319.686 286.606 321.194 286.065 322.238 284.982C323.32 283.861 323.997 282.372 324.268 280.516H332.214C331.672 284.499 330.126 287.534 327.574 289.622C325.022 291.71 321.754 292.754 317.772 292.754C315.529 292.754 313.46 292.387 311.566 291.652C309.71 290.879 308.124 289.815 306.81 288.462C305.495 287.109 304.47 285.504 303.736 283.648C303.001 281.753 302.634 279.685 302.634 277.442C302.634 275.122 302.962 272.976 303.62 271.004C304.316 268.993 305.321 267.273 306.636 265.842C307.95 264.373 309.555 263.232 311.45 262.42C313.344 261.608 315.51 261.202 317.946 261.202C319.724 261.202 321.426 261.434 323.05 261.898C324.712 262.362 326.182 263.077 327.458 264.044C328.772 264.972 329.836 266.151 330.648 267.582C331.46 268.974 331.924 270.637 332.04 272.57H323.978Z" fill="#E46C3E"/>
<path d="M198.969 244H192.773C189.066 238.143 186.764 234.546 185.867 233.209C184.97 231.872 184.022 230.729 183.023 229.781C182.042 228.816 181.111 228.207 180.23 227.953C179.367 227.699 178.216 227.572 176.777 227.572H171.09V244H166.164V206.777H182.643C184.894 206.777 186.781 206.921 188.305 207.209C189.828 207.497 191.165 208.106 192.316 209.037C193.467 209.951 194.348 211.111 194.957 212.516C195.583 213.921 195.896 215.402 195.896 216.959C195.896 219.769 195.008 222.029 193.23 223.738C191.453 225.448 188.863 226.531 185.461 226.988V227.09C187.949 228.19 190.285 230.45 192.469 233.869L198.969 244ZM171.09 223.154H181.652C183.785 223.154 185.469 222.977 186.705 222.621C187.958 222.249 188.956 221.538 189.701 220.488C190.446 219.439 190.818 218.262 190.818 216.959C190.818 215.266 190.201 213.827 188.965 212.643C187.729 211.458 185.689 210.865 182.846 210.865H171.09V223.154ZM226.467 231.686H206.281C206.467 234.665 207.314 236.941 208.82 238.516C210.344 240.09 212.24 240.877 214.508 240.877C216.251 240.877 217.715 240.42 218.9 239.506C220.085 238.575 220.991 237.178 221.617 235.316L226.314 235.9C225.553 238.71 224.156 240.868 222.125 242.375C220.094 243.882 217.555 244.635 214.508 244.635C210.462 244.635 207.297 243.399 205.012 240.928C202.743 238.439 201.609 235.046 201.609 230.746C201.609 226.497 202.71 223.053 204.91 220.412C207.128 217.771 210.242 216.451 214.254 216.451C216.217 216.451 218.105 216.883 219.916 217.746C221.744 218.609 223.293 220.082 224.562 222.164C225.832 224.229 226.467 227.403 226.467 231.686ZM221.77 227.928C221.583 225.186 220.729 223.214 219.205 222.012C217.699 220.793 216.048 220.184 214.254 220.184C212.104 220.184 210.335 220.903 208.947 222.342C207.559 223.781 206.755 225.643 206.535 227.928H221.77ZM220.602 206.143L214.99 213.277H211.232L214.609 206.143H220.602ZM247.033 224.602C246.83 223.129 246.229 222.029 245.23 221.301C244.249 220.556 242.878 220.184 241.117 220.184C239.374 220.184 237.96 220.48 236.877 221.072C235.811 221.665 235.277 222.528 235.277 223.662C235.277 224.729 235.701 225.49 236.547 225.947C237.41 226.404 239.103 226.963 241.625 227.623C244.469 228.351 246.593 228.994 247.998 229.553C249.42 230.111 250.52 230.898 251.299 231.914C252.094 232.913 252.492 234.309 252.492 236.104C252.492 238.507 251.51 240.53 249.547 242.172C247.583 243.814 244.96 244.635 241.676 244.635C238.257 244.635 235.582 243.915 233.652 242.477C231.74 241.021 230.563 238.846 230.123 235.951L234.668 235.266C234.905 237.145 235.599 238.549 236.75 239.48C237.918 240.411 239.543 240.877 241.625 240.877C243.622 240.877 245.154 240.462 246.221 239.633C247.287 238.786 247.82 237.762 247.82 236.561C247.82 235.748 247.575 235.096 247.084 234.605C246.593 234.115 245.975 233.751 245.23 233.514C244.503 233.26 242.852 232.82 240.279 232.193C236.454 231.279 233.923 230.171 232.688 228.867C231.469 227.564 230.859 226.007 230.859 224.195C230.859 221.944 231.757 220.09 233.551 218.635C235.345 217.179 237.757 216.451 240.787 216.451C244.003 216.451 246.5 217.086 248.277 218.355C250.072 219.608 251.146 221.487 251.502 223.992L247.033 224.602ZM281.412 231.686H261.227C261.413 234.665 262.259 236.941 263.766 238.516C265.289 240.09 267.185 240.877 269.453 240.877C271.197 240.877 272.661 240.42 273.846 239.506C275.031 238.575 275.936 237.178 276.562 235.316L281.26 235.9C280.498 238.71 279.102 240.868 277.07 242.375C275.039 243.882 272.5 244.635 269.453 244.635C265.408 244.635 262.242 243.399 259.957 240.928C257.689 238.439 256.555 235.046 256.555 230.746C256.555 226.497 257.655 223.053 259.855 220.412C262.073 217.771 265.188 216.451 269.199 216.451C271.163 216.451 273.05 216.883 274.861 217.746C276.689 218.609 278.238 220.082 279.508 222.164C280.777 224.229 281.412 227.403 281.412 231.686ZM276.715 227.928C276.529 225.186 275.674 223.214 274.15 222.012C272.644 220.793 270.993 220.184 269.199 220.184C267.049 220.184 265.281 220.903 263.893 222.342C262.505 223.781 261.701 225.643 261.48 227.928H276.715ZM310.307 244H305.508C305.068 243.154 304.755 242.045 304.568 240.674C301.505 243.314 298.195 244.635 294.641 244.635C291.797 244.635 289.554 243.924 287.912 242.502C286.27 241.08 285.449 239.201 285.449 236.865C285.449 234.631 286.236 232.794 287.811 231.355C289.402 229.9 292.152 228.935 296.062 228.461L300.328 227.826C301.919 227.572 303.231 227.259 304.264 226.887C304.264 225.516 304.221 224.551 304.137 223.992C304.052 223.417 303.798 222.824 303.375 222.215C302.969 221.605 302.309 221.115 301.395 220.742C300.48 220.37 299.253 220.184 297.713 220.184C295.749 220.184 294.192 220.548 293.041 221.275C291.907 222.003 291.128 223.357 290.705 225.338L286.236 224.754C286.727 221.995 287.988 219.921 290.02 218.533C292.051 217.145 294.844 216.451 298.398 216.451C301.632 216.451 304.001 216.934 305.508 217.898C307.031 218.846 307.962 219.997 308.301 221.352C308.656 222.706 308.834 224.449 308.834 226.582V232.727C308.834 236.467 308.902 238.981 309.037 240.268C309.189 241.537 309.613 242.781 310.307 244ZM304.264 232.143V230.492C301.877 231.288 298.957 231.923 295.504 232.396C292.051 232.854 290.324 234.309 290.324 236.764C290.324 237.999 290.79 239.023 291.721 239.836C292.652 240.632 293.989 241.029 295.732 241.029C297.984 241.029 299.964 240.361 301.674 239.023C303.4 237.669 304.264 235.376 304.264 232.143ZM337.729 244H333.641V240.039H333.514C331.449 243.103 328.63 244.635 325.059 244.635C323.18 244.635 321.436 244.203 319.828 243.34C318.237 242.46 317.171 241.258 316.629 239.734C316.104 238.194 315.842 236.205 315.842 233.768V217.061H320.412V231.99C320.412 234.377 320.522 236.087 320.742 237.119C320.979 238.152 321.58 239.007 322.545 239.684C323.51 240.344 324.661 240.674 325.998 240.674C327.725 240.674 329.35 240.081 330.873 238.896C332.396 237.695 333.158 235.215 333.158 231.457V217.061H337.729V244Z" fill="#38B065"/>
</svg>
